<svg width="48" height="48" viewBox="0 0 48 48" fill="none" xmlns="http://www.w3.org/2000/svg">
<mask id="path-1-outside-1_5007_30872" maskUnits="userSpaceOnUse" x="2.42859" y="4.14282" width="43" height="40" fill="black">
<rect fill="white" x="2.42859" y="4.14282" width="43" height="40"/>
<path d="M29.5783 18.8571C30.6013 18.8571 31.5824 19.2635 32.3057 19.9868C33.0291 20.7102 33.4354 21.6913 33.4354 22.7143V33.4268C33.4354 35.9279 32.4419 38.3265 30.6734 40.095C28.9049 41.8636 26.5062 42.8571 24.0052 42.8571C21.5041 42.8571 19.1055 41.8636 17.3369 40.095C15.5684 38.3265 14.5749 35.9279 14.5749 33.4268V22.7143C14.5749 21.6913 14.9813 20.7102 15.7046 19.9868C16.428 19.2635 17.409 18.8571 18.432 18.8571H29.5783ZM29.5783 21.4285H18.432C18.091 21.4285 17.764 21.564 17.5229 21.8051C17.2818 22.0462 17.1463 22.3733 17.1463 22.7143V33.4268C17.1463 35.2459 17.8689 36.9905 19.1552 38.2768C20.4415 39.5631 22.1861 40.2857 24.0052 40.2857C25.8242 40.2857 27.5688 39.5631 28.8551 38.2768C30.1414 36.9905 30.864 35.2459 30.864 33.4268V22.7143C30.864 22.3733 30.7286 22.0462 30.4874 21.8051C30.2463 21.564 29.9193 21.4285 29.5783 21.4285ZM7.28573 18.8571H14.4103C13.7221 19.5737 13.2384 20.4616 13.0097 21.4285H7.28573C6.94474 21.4285 6.61771 21.564 6.3766 21.8051C6.13548 22.0462 6.00002 22.3733 6.00002 22.7143V31.7125C5.99979 32.5727 6.21523 33.4192 6.62664 34.1745C7.03804 34.9299 7.63228 35.5701 8.355 36.0365C9.07772 36.5029 9.90584 36.7807 10.7636 36.8444C11.6214 36.9081 12.4815 36.7557 13.2652 36.4011C13.4932 37.2411 13.8206 38.04 14.232 38.7874C13.0575 39.3002 11.7738 39.5124 10.4967 39.4048C9.21965 39.2972 7.98952 38.8731 6.91738 38.171C5.84524 37.4689 4.96487 36.5108 4.35577 35.3832C3.74666 34.2557 3.42801 32.9941 3.42859 31.7125V22.7143C3.42859 21.6913 3.83497 20.7102 4.55832 19.9868C5.28168 19.2635 6.26275 18.8571 7.28573 18.8571ZM40.7143 18.8571C41.7373 18.8571 42.7184 19.2635 43.4417 19.9868C44.1651 20.7102 44.5714 21.6913 44.5714 22.7143V31.7143C44.572 32.9951 44.2535 34.2559 43.6449 35.3829C43.0363 36.51 42.1566 37.4677 41.0853 38.1697C40.014 38.8717 38.7847 39.296 37.5084 39.4041C36.2322 39.5122 34.949 39.3009 33.7749 38.7891L33.8709 38.6143C34.2377 37.9183 34.5343 37.1794 34.7469 36.4045C35.5301 36.757 36.3892 36.9076 37.2456 36.8428C38.102 36.7779 38.9286 36.4996 39.6498 36.0332C40.371 35.5668 40.964 34.9272 41.3745 34.1728C41.785 33.4184 42.0001 32.5731 42 31.7143V22.7143C42 22.3736 41.8648 22.0468 41.624 21.8057C41.3833 21.5646 41.0567 21.429 40.716 21.4285H35.0023C34.7732 20.4614 34.289 19.5734 33.6 18.8571H40.716H40.7143ZM24 5.14282C24.7879 5.14282 25.5682 5.29802 26.2961 5.59954C27.0241 5.90107 27.6855 6.34303 28.2427 6.90018C28.7998 7.45733 29.2418 8.11877 29.5433 8.84672C29.8448 9.57468 30 10.3549 30 11.1428C30 11.9308 29.8448 12.711 29.5433 13.4389C29.2418 14.1669 28.7998 14.8283 28.2427 15.3855C27.6855 15.9426 27.0241 16.3846 26.2961 16.6861C25.5682 16.9876 24.7879 17.1428 24 17.1428C22.4087 17.1428 20.8826 16.5107 19.7574 15.3855C18.6322 14.2602 18 12.7341 18 11.1428C18 9.55152 18.6322 8.0254 19.7574 6.90018C20.8826 5.77496 22.4087 5.14282 24 5.14282ZM37.7194 6.85711C38.3948 6.85711 39.0636 6.99013 39.6875 7.24858C40.3115 7.50704 40.8784 7.88586 41.356 8.36342C41.8336 8.84097 42.2124 9.40792 42.4708 10.0319C42.7293 10.6558 42.8623 11.3246 42.8623 12C42.8623 12.6753 42.7293 13.3441 42.4708 13.9681C42.2124 14.592 41.8336 15.159 41.356 15.6365C40.8784 16.1141 40.3115 16.4929 39.6875 16.7513C39.0636 17.0098 38.3948 17.1428 37.7194 17.1428C36.3555 17.1428 35.0474 16.601 34.0829 15.6365C33.1184 14.672 32.5766 13.3639 32.5766 12C32.5766 10.636 33.1184 9.32789 34.0829 8.36342C35.0474 7.39894 36.3555 6.85711 37.7194 6.85711ZM10.2806 6.85711C10.956 6.85711 11.6247 6.99013 12.2487 7.24858C12.8726 7.50704 13.4396 7.88586 13.9171 8.36342C14.3947 8.84097 14.7735 9.40792 15.032 10.0319C15.2904 10.6558 15.4234 11.3246 15.4234 12C15.4234 12.6753 15.2904 13.3441 15.032 13.9681C14.7735 14.592 14.3947 15.159 13.9171 15.6365C13.4396 16.1141 12.8726 16.4929 12.2487 16.7513C11.6247 17.0098 10.956 17.1428 10.2806 17.1428C8.91662 17.1428 7.60851 16.601 6.64404 15.6365C5.67957 14.672 5.13773 13.3639 5.13773 12C5.13773 10.636 5.67957 9.32789 6.64404 8.36342C7.60851 7.39894 8.91662 6.85711 10.2806 6.85711ZM24 7.71425C23.0907 7.71425 22.2186 8.07547 21.5757 8.71846C20.9327 9.36144 20.5714 10.2335 20.5714 11.1428C20.5714 12.0521 20.9327 12.9242 21.5757 13.5672C22.2186 14.2102 23.0907 14.5714 24 14.5714C24.9093 14.5714 25.7814 14.2102 26.4244 13.5672C27.0674 12.9242 27.4286 12.0521 27.4286 11.1428C27.4286 10.2335 27.0674 9.36144 26.4244 8.71846C25.7814 8.07547 24.9093 7.71425 24 7.71425ZM37.7194 9.42854C37.3818 9.42854 37.0474 9.49505 36.7354 9.62427C36.4234 9.7535 36.1399 9.94291 35.9012 10.1817C35.6624 10.4205 35.473 10.7039 35.3438 11.0159C35.2145 11.3279 35.148 11.6623 35.148 12C35.148 12.3376 35.2145 12.672 35.3438 12.984C35.473 13.296 35.6624 13.5795 35.9012 13.8182C36.1399 14.057 36.4234 14.2464 36.7354 14.3757C37.0474 14.5049 37.3818 14.5714 37.7194 14.5714C38.4014 14.5714 39.0555 14.3005 39.5377 13.8182C40.02 13.336 40.2909 12.682 40.2909 12C40.2909 11.318 40.02 10.6639 39.5377 10.1817C39.0555 9.69945 38.4014 9.42854 37.7194 9.42854ZM10.2806 9.42854C9.94291 9.42854 9.60853 9.49505 9.29655 9.62427C8.98457 9.7535 8.70109 9.94291 8.46232 10.1817C8.22354 10.4205 8.03413 10.7039 7.9049 11.0159C7.77567 11.3279 7.70916 11.6623 7.70916 12C7.70916 12.3376 7.77567 12.672 7.9049 12.984C8.03413 13.296 8.22354 13.5795 8.46232 13.8182C8.70109 14.057 8.98457 14.2464 9.29655 14.3757C9.60853 14.5049 9.94291 14.5714 10.2806 14.5714C10.9626 14.5714 11.6166 14.3005 12.0989 13.8182C12.5811 13.336 12.852 12.682 12.852 12C12.852 11.318 12.5811 10.6639 12.0989 10.1817C11.6166 9.69945 10.9626 9.42854 10.2806 9.42854Z"/>
</mask>
<path d="M29.5783 18.8571C30.6013 18.8571 31.5824 19.2635 32.3057 19.9868C33.0291 20.7102 33.4354 21.6913 33.4354 22.7143V33.4268C33.4354 35.9279 32.4419 38.3265 30.6734 40.095C28.9049 41.8636 26.5062 42.8571 24.0052 42.8571C21.5041 42.8571 19.1055 41.8636 17.3369 40.095C15.5684 38.3265 14.5749 35.9279 14.5749 33.4268V22.7143C14.5749 21.6913 14.9813 20.7102 15.7046 19.9868C16.428 19.2635 17.409 18.8571 18.432 18.8571H29.5783ZM29.5783 21.4285H18.432C18.091 21.4285 17.764 21.564 17.5229 21.8051C17.2818 22.0462 17.1463 22.3733 17.1463 22.7143V33.4268C17.1463 35.2459 17.8689 36.9905 19.1552 38.2768C20.4415 39.5631 22.1861 40.2857 24.0052 40.2857C25.8242 40.2857 27.5688 39.5631 28.8551 38.2768C30.1414 36.9905 30.864 35.2459 30.864 33.4268V22.7143C30.864 22.3733 30.7286 22.0462 30.4874 21.8051C30.2463 21.564 29.9193 21.4285 29.5783 21.4285ZM7.28573 18.8571H14.4103C13.7221 19.5737 13.2384 20.4616 13.0097 21.4285H7.28573C6.94474 21.4285 6.61771 21.564 6.3766 21.8051C6.13548 22.0462 6.00002 22.3733 6.00002 22.7143V31.7125C5.99979 32.5727 6.21523 33.4192 6.62664 34.1745C7.03804 34.9299 7.63228 35.5701 8.355 36.0365C9.07772 36.5029 9.90584 36.7807 10.7636 36.8444C11.6214 36.9081 12.4815 36.7557 13.2652 36.4011C13.4932 37.2411 13.8206 38.04 14.232 38.7874C13.0575 39.3002 11.7738 39.5124 10.4967 39.4048C9.21965 39.2972 7.98952 38.8731 6.91738 38.171C5.84524 37.4689 4.96487 36.5108 4.35577 35.3832C3.74666 34.2557 3.42801 32.9941 3.42859 31.7125V22.7143C3.42859 21.6913 3.83497 20.7102 4.55832 19.9868C5.28168 19.2635 6.26275 18.8571 7.28573 18.8571ZM40.7143 18.8571C41.7373 18.8571 42.7184 19.2635 43.4417 19.9868C44.1651 20.7102 44.5714 21.6913 44.5714 22.7143V31.7143C44.572 32.9951 44.2535 34.2559 43.6449 35.3829C43.0363 36.51 42.1566 37.4677 41.0853 38.1697C40.014 38.8717 38.7847 39.296 37.5084 39.4041C36.2322 39.5122 34.949 39.3009 33.7749 38.7891L33.8709 38.6143C34.2377 37.9183 34.5343 37.1794 34.7469 36.4045C35.5301 36.757 36.3892 36.9076 37.2456 36.8428C38.102 36.7779 38.9286 36.4996 39.6498 36.0332C40.371 35.5668 40.964 34.9272 41.3745 34.1728C41.785 33.4184 42.0001 32.5731 42 31.7143V22.7143C42 22.3736 41.8648 22.0468 41.624 21.8057C41.3833 21.5646 41.0567 21.429 40.716 21.4285H35.0023C34.7732 20.4614 34.289 19.5734 33.6 18.8571H40.716H40.7143ZM24 5.14282C24.7879 5.14282 25.5682 5.29802 26.2961 5.59954C27.0241 5.90107 27.6855 6.34303 28.2427 6.90018C28.7998 7.45733 29.2418 8.11877 29.5433 8.84672C29.8448 9.57468 30 10.3549 30 11.1428C30 11.9308 29.8448 12.711 29.5433 13.4389C29.2418 14.1669 28.7998 14.8283 28.2427 15.3855C27.6855 15.9426 27.0241 16.3846 26.2961 16.6861C25.5682 16.9876 24.7879 17.1428 24 17.1428C22.4087 17.1428 20.8826 16.5107 19.7574 15.3855C18.6322 14.2602 18 12.7341 18 11.1428C18 9.55152 18.6322 8.0254 19.7574 6.90018C20.8826 5.77496 22.4087 5.14282 24 5.14282ZM37.7194 6.85711C38.3948 6.85711 39.0636 6.99013 39.6875 7.24858C40.3115 7.50704 40.8784 7.88586 41.356 8.36342C41.8336 8.84097 42.2124 9.40792 42.4708 10.0319C42.7293 10.6558 42.8623 11.3246 42.8623 12C42.8623 12.6753 42.7293 13.3441 42.4708 13.9681C42.2124 14.592 41.8336 15.159 41.356 15.6365C40.8784 16.1141 40.3115 16.4929 39.6875 16.7513C39.0636 17.0098 38.3948 17.1428 37.7194 17.1428C36.3555 17.1428 35.0474 16.601 34.0829 15.6365C33.1184 14.672 32.5766 13.3639 32.5766 12C32.5766 10.636 33.1184 9.32789 34.0829 8.36342C35.0474 7.39894 36.3555 6.85711 37.7194 6.85711ZM10.2806 6.85711C10.956 6.85711 11.6247 6.99013 12.2487 7.24858C12.8726 7.50704 13.4396 7.88586 13.9171 8.36342C14.3947 8.84097 14.7735 9.40792 15.032 10.0319C15.2904 10.6558 15.4234 11.3246 15.4234 12C15.4234 12.6753 15.2904 13.3441 15.032 13.9681C14.7735 14.592 14.3947 15.159 13.9171 15.6365C13.4396 16.1141 12.8726 16.4929 12.2487 16.7513C11.6247 17.0098 10.956 17.1428 10.2806 17.1428C8.91662 17.1428 7.60851 16.601 6.64404 15.6365C5.67957 14.672 5.13773 13.3639 5.13773 12C5.13773 10.636 5.67957 9.32789 6.64404 8.36342C7.60851 7.39894 8.91662 6.85711 10.2806 6.85711ZM24 7.71425C23.0907 7.71425 22.2186 8.07547 21.5757 8.71846C20.9327 9.36144 20.5714 10.2335 20.5714 11.1428C20.5714 12.0521 20.9327 12.9242 21.5757 13.5672C22.2186 14.2102 23.0907 14.5714 24 14.5714C24.9093 14.5714 25.7814 14.2102 26.4244 13.5672C27.0674 12.9242 27.4286 12.0521 27.4286 11.1428C27.4286 10.2335 27.0674 9.36144 26.4244 8.71846C25.7814 8.07547 24.9093 7.71425 24 7.71425ZM37.7194 9.42854C37.3818 9.42854 37.0474 9.49505 36.7354 9.62427C36.4234 9.7535 36.1399 9.94291 35.9012 10.1817C35.6624 10.4205 35.473 10.7039 35.3438 11.0159C35.2145 11.3279 35.148 11.6623 35.148 12C35.148 12.3376 35.2145 12.672 35.3438 12.984C35.473 13.296 35.6624 13.5795 35.9012 13.8182C36.1399 14.057 36.4234 14.2464 36.7354 14.3757C37.0474 14.5049 37.3818 14.5714 37.7194 14.5714C38.4014 14.5714 39.0555 14.3005 39.5377 13.8182C40.02 13.336 40.2909 12.682 40.2909 12C40.2909 11.318 40.02 10.6639 39.5377 10.1817C39.0555 9.69945 38.4014 9.42854 37.7194 9.42854ZM10.2806 9.42854C9.94291 9.42854 9.60853 9.49505 9.29655 9.62427C8.98457 9.7535 8.70109 9.94291 8.46232 10.1817C8.22354 10.4205 8.03413 10.7039 7.9049 11.0159C7.77567 11.3279 7.70916 11.6623 7.70916 12C7.70916 12.3376 7.77567 12.672 7.9049 12.984C8.03413 13.296 8.22354 13.5795 8.46232 13.8182C8.70109 14.057 8.98457 14.2464 9.29655 14.3757C9.60853 14.5049 9.94291 14.5714 10.2806 14.5714C10.9626 14.5714 11.6166 14.3005 12.0989 13.8182C12.5811 13.336 12.852 12.682 12.852 12C12.852 11.318 12.5811 10.6639 12.0989 10.1817C11.6166 9.69945 10.9626 9.42854 10.2806 9.42854Z" fill="#444444"/>
<path d="M29.5783 18.8571C30.6013 18.8571 31.5824 19.2635 32.3057 19.9868C33.0291 20.7102 33.4354 21.6913 33.4354 22.7143V33.4268C33.4354 35.9279 32.4419 38.3265 30.6734 40.095C28.9049 41.8636 26.5062 42.8571 24.0052 42.8571C21.5041 42.8571 19.1055 41.8636 17.3369 40.095C15.5684 38.3265 14.5749 35.9279 14.5749 33.4268V22.7143C14.5749 21.6913 14.9813 20.7102 15.7046 19.9868C16.428 19.2635 17.409 18.8571 18.432 18.8571H29.5783ZM29.5783 21.4285H18.432C18.091 21.4285 17.764 21.564 17.5229 21.8051C17.2818 22.0462 17.1463 22.3733 17.1463 22.7143V33.4268C17.1463 35.2459 17.8689 36.9905 19.1552 38.2768C20.4415 39.5631 22.1861 40.2857 24.0052 40.2857C25.8242 40.2857 27.5688 39.5631 28.8551 38.2768C30.1414 36.9905 30.864 35.2459 30.864 33.4268V22.7143C30.864 22.3733 30.7286 22.0462 30.4874 21.8051C30.2463 21.564 29.9193 21.4285 29.5783 21.4285ZM7.28573 18.8571H14.4103C13.7221 19.5737 13.2384 20.4616 13.0097 21.4285H7.28573C6.94474 21.4285 6.61771 21.564 6.3766 21.8051C6.13548 22.0462 6.00002 22.3733 6.00002 22.7143V31.7125C5.99979 32.5727 6.21523 33.4192 6.62664 34.1745C7.03804 34.9299 7.63228 35.5701 8.355 36.0365C9.07772 36.5029 9.90584 36.7807 10.7636 36.8444C11.6214 36.9081 12.4815 36.7557 13.2652 36.4011C13.4932 37.2411 13.8206 38.04 14.232 38.7874C13.0575 39.3002 11.7738 39.5124 10.4967 39.4048C9.21965 39.2972 7.98952 38.8731 6.91738 38.171C5.84524 37.4689 4.96487 36.5108 4.35577 35.3832C3.74666 34.2557 3.42801 32.9941 3.42859 31.7125V22.7143C3.42859 21.6913 3.83497 20.7102 4.55832 19.9868C5.28168 19.2635 6.26275 18.8571 7.28573 18.8571ZM40.7143 18.8571C41.7373 18.8571 42.7184 19.2635 43.4417 19.9868C44.1651 20.7102 44.5714 21.6913 44.5714 22.7143V31.7143C44.572 32.9951 44.2535 34.2559 43.6449 35.3829C43.0363 36.51 42.1566 37.4677 41.0853 38.1697C40.014 38.8717 38.7847 39.296 37.5084 39.4041C36.2322 39.5122 34.949 39.3009 33.7749 38.7891L33.8709 38.6143C34.2377 37.9183 34.5343 37.1794 34.7469 36.4045C35.5301 36.757 36.3892 36.9076 37.2456 36.8428C38.102 36.7779 38.9286 36.4996 39.6498 36.0332C40.371 35.5668 40.964 34.9272 41.3745 34.1728C41.785 33.4184 42.0001 32.5731 42 31.7143V22.7143C42 22.3736 41.8648 22.0468 41.624 21.8057C41.3833 21.5646 41.0567 21.429 40.716 21.4285H35.0023C34.7732 20.4614 34.289 19.5734 33.6 18.8571H40.716H40.7143ZM24 5.14282C24.7879 5.14282 25.5682 5.29802 26.2961 5.59954C27.0241 5.90107 27.6855 6.34303 28.2427 6.90018C28.7998 7.45733 29.2418 8.11877 29.5433 8.84672C29.8448 9.57468 30 10.3549 30 11.1428C30 11.9308 29.8448 12.711 29.5433 13.4389C29.2418 14.1669 28.7998 14.8283 28.2427 15.3855C27.6855 15.9426 27.0241 16.3846 26.2961 16.6861C25.5682 16.9876 24.7879 17.1428 24 17.1428C22.4087 17.1428 20.8826 16.5107 19.7574 15.3855C18.6322 14.2602 18 12.7341 18 11.1428C18 9.55152 18.6322 8.0254 19.7574 6.90018C20.8826 5.77496 22.4087 5.14282 24 5.14282ZM37.7194 6.85711C38.3948 6.85711 39.0636 6.99013 39.6875 7.24858C40.3115 7.50704 40.8784 7.88586 41.356 8.36342C41.8336 8.84097 42.2124 9.40792 42.4708 10.0319C42.7293 10.6558 42.8623 11.3246 42.8623 12C42.8623 12.6753 42.7293 13.3441 42.4708 13.9681C42.2124 14.592 41.8336 15.159 41.356 15.6365C40.8784 16.1141 40.3115 16.4929 39.6875 16.7513C39.0636 17.0098 38.3948 17.1428 37.7194 17.1428C36.3555 17.1428 35.0474 16.601 34.0829 15.6365C33.1184 14.672 32.5766 13.3639 32.5766 12C32.5766 10.636 33.1184 9.32789 34.0829 8.36342C35.0474 7.39894 36.3555 6.85711 37.7194 6.85711ZM10.2806 6.85711C10.956 6.85711 11.6247 6.99013 12.2487 7.24858C12.8726 7.50704 13.4396 7.88586 13.9171 8.36342C14.3947 8.84097 14.7735 9.40792 15.032 10.0319C15.2904 10.6558 15.4234 11.3246 15.4234 12C15.4234 12.6753 15.2904 13.3441 15.032 13.9681C14.7735 14.592 14.3947 15.159 13.9171 15.6365C13.4396 16.1141 12.8726 16.4929 12.2487 16.7513C11.6247 17.0098 10.956 17.1428 10.2806 17.1428C8.91662 17.1428 7.60851 16.601 6.64404 15.6365C5.67957 14.672 5.13773 13.3639 5.13773 12C5.13773 10.636 5.67957 9.32789 6.64404 8.36342C7.60851 7.39894 8.91662 6.85711 10.2806 6.85711ZM24 7.71425C23.0907 7.71425 22.2186 8.07547 21.5757 8.71846C20.9327 9.36144 20.5714 10.2335 20.5714 11.1428C20.5714 12.0521 20.9327 12.9242 21.5757 13.5672C22.2186 14.2102 23.0907 14.5714 24 14.5714C24.9093 14.5714 25.7814 14.2102 26.4244 13.5672C27.0674 12.9242 27.4286 12.0521 27.4286 11.1428C27.4286 10.2335 27.0674 9.36144 26.4244 8.71846C25.7814 8.07547 24.9093 7.71425 24 7.71425ZM37.7194 9.42854C37.3818 9.42854 37.0474 9.49505 36.7354 9.62427C36.4234 9.7535 36.1399 9.94291 35.9012 10.1817C35.6624 10.4205 35.473 10.7039 35.3438 11.0159C35.2145 11.3279 35.148 11.6623 35.148 12C35.148 12.3376 35.2145 12.672 35.3438 12.984C35.473 13.296 35.6624 13.5795 35.9012 13.8182C36.1399 14.057 36.4234 14.2464 36.7354 14.3757C37.0474 14.5049 37.3818 14.5714 37.7194 14.5714C38.4014 14.5714 39.0555 14.3005 39.5377 13.8182C40.02 13.336 40.2909 12.682 40.2909 12C40.2909 11.318 40.02 10.6639 39.5377 10.1817C39.0555 9.69945 38.4014 9.42854 37.7194 9.42854ZM10.2806 9.42854C9.94291 9.42854 9.60853 9.49505 9.29655 9.62427C8.98457 9.7535 8.70109 9.94291 8.46232 10.1817C8.22354 10.4205 8.03413 10.7039 7.9049 11.0159C7.77567 11.3279 7.70916 11.6623 7.70916 12C7.70916 12.3376 7.77567 12.672 7.9049 12.984C8.03413 13.296 8.22354 13.5795 8.46232 13.8182C8.70109 14.057 8.98457 14.2464 9.29655 14.3757C9.60853 14.5049 9.94291 14.5714 10.2806 14.5714C10.9626 14.5714 11.6166 14.3005 12.0989 13.8182C12.5811 13.336 12.852 12.682 12.852 12C12.852 11.318 12.5811 10.6639 12.0989 10.1817C11.6166 9.69945 10.9626 9.42854 10.2806 9.42854Z" stroke="#444444" stroke-width="1.2" mask="url(#path-1-outside-1_5007_30872)"/>
</svg>
