<svg width="48" height="48" viewBox="0 0 48 48" fill="none" xmlns="http://www.w3.org/2000/svg">
<path d="M41.3778 24C41.3778 33.598 33.598 41.3778 24 41.3778C14.402 41.3778 6.62222 33.598 6.62222 24C6.62222 14.402 14.402 6.62222 24 6.62222C33.598 6.62222 41.3778 14.402 41.3778 24ZM24 44.4C35.2665 44.4 44.4 35.2665 44.4 24C44.4 12.7335 35.2665 3.6 24 3.6C12.7335 3.6 3.6 12.7335 3.6 24C3.6 35.2665 12.7335 44.4 24 44.4Z" fill="#444444" stroke="#444444" stroke-width="0.8"/>
<path d="M13.2831 28.9969L13.2831 28.9969C12.6735 27.369 13.9906 25.8222 15.6366 25.8222H32.3644C34.0098 25.8222 35.329 27.3687 34.7166 28.9972L13.2831 28.9969ZM13.2831 28.9969L13.2842 28.9997M13.2831 28.9969L13.2842 28.9997M13.2842 28.9997C13.3028 29.0482 13.3215 29.0967 13.3405 29.145C15.289 34.1877 19.2941 37.7333 23.9999 37.7333C28.7061 37.7333 32.7113 34.1873 34.6608 29.1442L34.6611 29.1434M13.2842 28.9997L34.6611 29.1434M34.6611 29.1434C34.6798 29.0948 34.6982 29.0462 34.7165 28.9974L34.6611 29.1434ZM23.9999 34.7111C21.1425 34.7111 18.218 32.6527 16.4902 28.8444H31.5096C29.782 32.6527 26.8584 34.7111 23.9999 34.7111Z" fill="#444444" stroke="#444444" stroke-width="0.8"/>
<path d="M26.5273 22.4053L26.5273 22.4053C26.3419 21.8945 26.4084 21.3137 26.5359 20.8394L26.536 20.8392C26.6732 20.3294 26.9239 19.7908 27.272 19.2921L27.2722 19.2917C27.9656 18.3006 29.1395 17.3615 30.7439 17.2925L30.7445 17.2925C32.4367 17.222 33.6682 18.2992 34.3946 19.3619L34.3948 19.3621C34.7663 19.9063 35.0429 20.4947 35.2175 21.0388L35.2178 21.0396C35.3835 21.56 35.4868 22.1326 35.4196 22.6231L35.4195 22.6239C35.3974 22.7827 35.3357 22.9333 35.2401 23.062C35.1445 23.1907 35.0181 23.2932 34.8725 23.3602C34.7269 23.4272 34.5668 23.4565 34.4069 23.4454C34.247 23.4343 34.0926 23.3832 33.9577 23.2968C33.9576 23.2967 33.9576 23.2967 33.9575 23.2967L34.1733 22.9599C33.7289 22.6754 33.2622 22.2854 32.8322 21.9254L26.5273 22.4053ZM26.5273 22.4053C26.5756 22.5381 26.6526 22.6586 26.753 22.758L27.0345 22.4738L26.753 22.758C26.8534 22.8574 26.9745 22.9334 27.1078 22.9803L27.2408 22.6031L27.1078 22.9803C27.241 23.0273 27.383 23.0441 27.5236 23.0296C27.6641 23.0151 27.7997 22.9697 27.9205 22.8965L27.9206 22.8965L27.9267 22.8927C28.2377 22.6966 28.5353 22.4799 28.8176 22.2443L29.0331 22.0694L29.0351 22.0677C29.2353 21.9031 29.4219 21.751 29.6133 21.6085L29.6145 21.6076C30.1676 21.1925 30.508 21.0581 30.737 21.0694C30.8565 21.0754 31.0188 21.1223 31.2411 21.2419C31.4615 21.3604 31.7182 21.5378 32.0223 21.7776L26.5273 22.4053ZM21.378 22.4057L21.3782 22.4053C21.5635 21.895 21.4985 21.3145 21.3707 20.8394L21.3707 20.8394L21.3695 20.835C21.2141 20.282 20.9653 19.7598 20.6337 19.2907C19.9394 18.3003 18.7669 17.3615 17.1627 17.2925L17.1621 17.2925C15.4688 17.2221 14.2384 18.2992 13.512 19.3619L13.5117 19.3623C13.1595 19.8788 12.8826 20.4428 12.6895 21.0375L12.6895 21.0375L12.6891 21.0389C12.5221 21.5598 12.4187 22.1324 12.4859 22.6231L12.486 22.6235C12.5079 22.7825 12.5696 22.9335 12.6653 23.0624C12.761 23.1913 12.8877 23.294 13.0335 23.3611C13.1794 23.4281 13.3399 23.4573 13.5 23.446C13.6598 23.4347 13.8142 23.3833 13.9489 23.2968C14.4089 23.0024 14.8842 22.6055 15.3032 22.2556L15.3308 22.2325L15.3319 22.2316C15.5267 22.0677 15.713 21.9131 15.8837 21.778C16.1875 21.5381 16.4444 21.3605 16.665 21.2419C16.8873 21.1223 17.0496 21.0754 17.1686 21.0694C17.3976 21.0581 17.738 21.1926 18.2924 21.6078L18.2933 21.6085C18.4847 21.751 18.6713 21.9031 18.8715 22.0677L18.8728 22.0688L19.0894 22.2454L19.0894 22.2455L19.0909 22.2467C19.3634 22.4666 19.6704 22.7061 19.9867 22.8969C20.1075 22.9697 20.2429 23.0149 20.3832 23.0292C20.5236 23.0435 20.6653 23.0266 20.7983 22.9796C20.9313 22.9327 21.0523 22.8569 21.1525 22.7576L20.8711 22.4734L21.1525 22.7576C21.2527 22.6584 21.3297 22.5382 21.378 22.4057ZM21.0022 22.2688C21.1466 21.871 21.1033 21.3854 20.9844 20.9432L21.0022 22.2688Z" fill="#444444" stroke="#444444" stroke-width="0.8"/>
</svg>
